<svg viewBox="0 0 668 144" fill="none" xmlns="http://www.w3.org/2000/svg">
<path d="M103.624 37.3687C97.6045 37.3687 92.5296 39.2728 88.6349 43.0811L88.5169 38.5587H73.4102V106.036H88.8709V59.2662C91.3494 54.0298 96.0702 51.5306 103.033 51.5306C105.04 51.5306 106.928 51.6497 108.58 51.8877L110.587 52.2447V38.9158L109.525 38.4397C108.108 37.7257 106.22 37.3687 103.624 37.3687Z" fill="#333333"/>
<path d="M173.965 89.2561V59.7421C173.729 52.7206 171.133 47.2462 166.176 43.1999C161.337 39.2727 154.61 37.2495 146.23 37.2495C140.919 37.2495 136.08 38.2016 131.596 39.9867C127.111 41.7718 123.452 44.39 120.856 47.6032C118.141 50.9355 116.725 54.3867 116.725 57.9569V59.7421H132.304V57.9569C132.304 55.8148 133.484 53.9107 135.844 52.2445C138.441 50.4594 141.627 49.6264 145.522 49.6264C149.889 49.6264 153.193 50.5784 155.318 52.6016C157.442 54.5057 158.504 57.1239 158.504 60.4561V63.6693H148.709C138.441 63.6693 130.179 65.5735 124.396 69.5007C118.377 73.547 115.309 79.2594 115.309 86.5189C115.309 92.5883 117.787 97.5867 122.626 101.514C127.347 105.322 133.366 107.226 140.683 107.226C147.764 107.226 153.902 105.084 159.331 100.919C159.685 102.704 160.157 104.132 160.629 105.084L161.101 106.036H176.444V102.942L176.326 102.585C174.673 99.3718 173.965 94.8495 173.965 89.2561ZM152.131 91.6363C149.063 93.3024 145.758 94.1355 142.335 94.1355C138.795 94.1355 135.962 93.3024 133.838 91.6363C131.832 90.0892 130.769 87.828 130.769 84.9718C130.769 78.3074 137.379 74.9751 150.951 74.9751H158.504V85.8049C157.088 88.185 154.964 90.2082 152.131 91.6363Z" fill="#333333"/>
<path d="M209.725 84.1388L193.32 38.5586H177.27L203.942 106.036H215.39L241.827 38.5586H225.776L209.725 84.1388Z" fill="#333333"/>
<path d="M272.985 37.3687C267.202 37.3687 261.655 38.9158 256.698 41.891C251.742 44.8662 247.729 49.0315 244.896 54.2678C242.182 59.5042 240.766 65.4546 240.766 72.1191V74.1422C240.766 84.1389 243.952 92.2315 250.207 98.3009C256.462 104.251 264.606 107.346 274.52 107.346C286.794 107.346 296.118 102.942 302.255 94.2546L303.317 92.8265L293.285 85.686L292.223 86.8761C290.217 89.2563 287.738 91.2794 285.024 92.7075C282.427 94.1356 279.004 94.8497 275.11 94.8497C269.563 94.8497 265.196 93.0645 261.655 89.4943C258.469 86.2811 256.698 82.2348 256.226 77.2364H303.317V70.929C303.317 60.3373 300.602 52.0067 295.291 46.1753C289.98 40.3439 282.427 37.3687 272.985 37.3687ZM272.985 49.8645C277.47 49.8645 281.011 51.1736 283.607 53.9108C286.086 56.41 287.502 60.0992 287.974 64.6216H256.935C257.761 60.2183 259.531 56.767 262.127 54.1488C264.96 51.2926 268.619 49.8645 272.985 49.8645Z" fill="#333333"/>
<path d="M328.101 7.02148H312.641V106.036H328.101V7.02148Z" fill="#333333"/>
<path d="M443.645 94.1356C442.111 94.1356 439.986 93.8976 439.042 92.8265C438.216 91.8744 437.744 90.3273 437.744 88.3042V50.3405H452.267C453.371 50.3405 454.267 49.4451 454.267 48.3405V40.3207C454.267 39.2161 453.371 38.3207 452.267 38.3207H437.744V22.8496H422.283V38.3207H388.293L392.542 40.4628C396.909 42.724 401.039 44.1521 404.934 47.3653L409.537 50.3405H422.283V88.1852C422.283 94.0166 423.817 98.6579 426.768 101.99C429.836 105.322 434.321 106.988 440.104 106.988C443.173 106.988 446.477 106.631 449.664 105.798L450.962 105.441V93.0645L448.838 93.4215C446.713 93.8976 444.943 94.1356 443.645 94.1356Z" fill="#177A68"/>
<path d="M491.323 37.1309C485.304 37.1309 480.229 39.035 476.334 42.8433L476.216 38.3209H461.109V105.799H476.57V59.0284C479.049 53.792 483.769 51.2929 490.733 51.2929C492.739 51.2929 494.627 51.4118 496.28 51.6499L498.286 52.0069V38.678L497.224 38.2019C495.926 37.4879 493.919 37.1309 491.323 37.1309Z" fill="#177A68"/>
<path d="M522.363 38.3208H506.902V105.798H522.363V38.3208Z" fill="#177A68"/>
<path d="M514.691 14.9951C511.858 14.9951 509.734 15.8282 508.199 17.3753C506.665 18.9224 505.957 20.8265 505.957 23.0877C505.957 25.3488 506.783 27.253 508.199 28.8001C509.734 30.3472 511.858 31.0612 514.691 31.0612C517.523 31.0612 519.647 30.3472 521.182 28.8001C522.716 27.253 523.542 25.3488 523.542 23.0877C523.542 20.8265 522.716 18.9224 521.182 17.3753C519.647 15.8282 517.523 14.9951 514.691 14.9951Z" fill="#177A68"/>
<path d="M578.308 42.6052C573.587 39.0349 567.686 37.1308 560.722 37.1308C551.989 37.1308 544.908 40.344 539.479 46.6515C534.168 52.9589 531.453 61.2895 531.453 71.5242V72.3573C531.453 82.473 534.168 90.9225 539.479 97.23C544.908 103.656 551.989 106.989 560.604 106.989C568.04 106.989 574.295 104.966 579.016 101.038L579.37 105.799H593.768V6.78369H578.308V42.6052ZM563.555 94.1358C558.362 94.1358 554.349 92.3506 551.399 88.6614C548.448 84.8531 546.914 79.6168 546.914 72.7143C546.914 65.0978 548.448 59.2664 551.399 55.4581C554.349 51.7688 558.362 49.9837 563.673 49.9837C570.282 49.9837 575.121 52.4829 578.308 57.7192V86.0432C575.121 91.5176 570.282 94.1358 563.555 94.1358Z" fill="#177A68"/>
<path d="M664.935 70.6912C664.935 60.0995 662.22 51.7689 656.909 45.9375C651.598 40.1061 644.045 37.1309 634.485 37.1309C628.702 37.1309 623.155 38.678 618.198 41.6532C613.242 44.6284 609.229 48.7937 606.396 54.03C603.682 59.2664 602.266 65.2168 602.266 71.8813V73.9044C602.266 83.9011 605.452 91.9937 611.707 98.0631C617.962 104.014 626.106 107.108 636.02 107.108C648.294 107.108 657.618 102.704 663.755 94.0168L664.817 92.5887L654.785 85.4482L653.723 86.6383C651.717 89.0185 649.238 91.0416 646.524 92.4697C643.927 93.8978 640.505 94.6119 636.61 94.6119C631.063 94.6119 626.696 92.8267 623.155 89.2565C619.969 86.0433 618.199 81.997 617.726 76.9986H664.817V70.6912H664.935ZM634.485 49.6267C638.97 49.6267 642.511 50.9358 645.107 53.673C647.586 56.1722 649.002 59.8615 649.474 64.3838H618.435C619.261 59.9805 621.031 56.5292 623.627 53.911C626.46 51.0548 630.119 49.6267 634.485 49.6267Z" fill="#177A68"/>
<path d="M388.339 53.6721C383.505 51.6192 378.553 49.7944 373.836 47.2852C369.709 45.1183 364.167 42.4951 363.342 37.5909C361.809 28.4669 376.312 22.6503 383.269 20.2553C388.339 18.5445 400.484 15.237 412.394 12.842C423.831 10.561 440.221 7.48159 440.221 7.48159C440.221 7.48159 431.024 6.79729 423.949 7.36754C411.568 8.394 405.79 8.50804 393.528 10.675C379.496 13.1841 364.757 17.2899 352.848 25.6156C350.254 27.4404 347.778 29.4934 346.127 32.1165C341.175 39.872 346.245 47.6274 352.494 52.3035C358.744 56.8655 366.054 59.6027 372.893 62.9102C379.26 65.9895 386.099 69.5251 389.872 75.5698C393.292 81.0442 393.174 87.8872 390.344 93.5898C383.859 106.82 365.582 110.469 352.14 113.891C337.637 117.54 312.758 118.111 312.758 118.111L345.773 144C345.773 144 367.587 135.332 384.095 126.322C393.174 121.418 401.899 115.259 407.913 106.82C413.926 98.3799 416.874 87.0889 413.691 77.1665C411.214 69.7532 405.673 63.7085 399.187 59.3746C395.65 56.9795 391.995 55.2688 388.339 53.6721Z" fill="#177A68"/>
<path d="M361.262 76.8792L355.361 62.2412L350.286 77.1172L335.77 83.0677L350.522 88.185L356.423 102.823L361.498 87.947L376.015 81.9966L361.262 76.8792ZM355.951 86.1619C353.945 86.1619 352.293 84.4958 352.293 82.4726C352.293 80.4495 353.945 78.7834 355.951 78.7834C357.958 78.7834 359.61 80.4495 359.61 82.4726C359.61 84.4958 357.958 86.1619 355.951 86.1619Z" fill="#FABD22"/>
<path d="M89.6961 19.7344C89.6961 20.839 88.8007 21.7344 87.6961 21.7344H59.8862V105.917H41.4597V21.7344H21.2438C21.2438 21.7344 18.8834 19.6364 12.3922 14.8761C5.90106 10.1158 0 7.14062 0 7.14062H87.6961C88.8007 7.14062 89.6961 8.03606 89.6961 9.14062V19.7344Z" fill="#333333"/>
</svg>
